# xmcd
#
# Track frame offsets: 
#        150
#        12452
#        25127
#        49127
#        69114
#        90076
#        108002
#        122964
#        137777
#        154013
#        165264
#        183564
#        193238
#
# Disc length: 2806 seconds
#
# Revision: 0
# Processed by: cddbd v1.5.2PL0 Copyright (c) Steve Scherf et al.
# Submitted via: ExactAudioCopyFreeDBPlugin 1.0
#
DISCID=9f0af40d
DTITLE=Ilana Katz Katz - Subway Stories
DYEAR=2017
DGENRE=blues
TTITLE0=Dont Forget
TTITLE1=Riley And Spencer
TTITLE2=Subway Blues
TTITLE3=Motherless Child
TTITLE4=Poison Days
TTITLE5=Like A Wino
TTITLE6=Ice Cream Freezer Blues
TTITLE7=Requiem
TTITLE8=Tribute To Slim Harpo
TTITLE9=The Excuse
TTITLE10=Road To Nowhere
TTITLE11=Dont Cross That Line
TTITLE12=John Browns Dreamsubway Light Of Mine
EXTD=
EXTT0=
EXTT1=
EXTT2=
EXTT3=
EXTT4=
EXTT5=
EXTT6=
EXTT7=
EXTT8=
EXTT9=
EXTT10=
EXTT11=
EXTT12=
PLAYORDER=
